<svg xmlns="http://www.w3.org/2000/svg" width="18" height="16.336" viewBox="0 0 18 16.336">
  <g id="icon-annotation-date" transform="translate(-668 -83.07)">
    <rect id="Rectangle_15" data-name="Rectangle 15" width="18" height="15" transform="translate(668 83.07)" fill="none"/>
    <g id="Path_10" data-name="Path 10" transform="translate(668 89.07)" fill="#fff">
      <path d="M 10.22940731048584 9.835964202880859 L 1.8598872423172 9.835964202880859 C 1.110037207603455 9.835964202880859 0.4999972283840179 9.029884338378906 0.4999972283840179 8.039084434509277 L 0.4999972283840179 0.5000039935112 L 11.5892972946167 0.5000039935112 L 11.5892972946167 8.039084434509277 C 11.5892972946167 9.029884338378906 10.97925758361816 9.835964202880859 10.22940731048584 9.835964202880859 Z" stroke="none"/>
      <path d="M 0.9999971389770508 1.000003814697266 L 0.9999971389770508 8.039083480834961 C 0.9999971389770508 8.803354263305664 1.453166961669922 9.335964202880859 1.85988712310791 9.335964202880859 L 10.22940731048584 9.335964202880859 C 10.63612747192383 9.335964202880859 11.0892972946167 8.803354263305664 11.0892972946167 8.039083480834961 L 11.0892972946167 1.000003814697266 L 0.9999971389770508 1.000003814697266 M -2.86102294921875e-06 3.814697265625e-06 L 12.0892972946167 3.814697265625e-06 L 12.0892972946167 8.039083480834961 C 12.0892972946167 9.307614326477051 11.2565975189209 10.33596420288086 10.22940731048584 10.33596420288086 L 1.85988712310791 10.33596420288086 C 0.8326969146728516 10.33596420288086 -2.86102294921875e-06 9.307614326477051 -2.86102294921875e-06 8.039083480834961 L -2.86102294921875e-06 3.814697265625e-06 Z" stroke="none" fill="#e28fcb"/>
    </g>
    <g id="Path_11" data-name="Path 11" transform="translate(668 86.734)" fill="#e28fcb">
      <path d="M 11.5892972946167 3.775203704833984 L 0.4999972283840179 3.775203704833984 L 0.4999972283840179 2.296883821487427 C 0.4999972283840179 1.306083798408508 1.110037207603455 0.5000037550926208 1.8598872423172 0.5000037550926208 L 10.22940731048584 0.5000037550926208 C 10.97925758361816 0.5000037550926208 11.5892972946167 1.306083798408508 11.5892972946167 2.296883821487427 L 11.5892972946167 3.775203704833984 Z" stroke="none"/>
      <path d="M 11.0892972946167 3.275203704833984 L 11.0892972946167 2.296883821487427 C 11.0892972946167 1.532613754272461 10.63612747192383 1.000003814697266 10.22940731048584 1.000003814697266 L 1.8598872423172 1.000003814697266 C 1.453167200088501 1.000003814697266 0.9999971985816956 1.532613754272461 0.9999971985816956 2.296883821487427 L 0.9999971985816956 3.275203704833984 L 11.0892972946167 3.275203704833984 M 12.0892972946167 4.275203704833984 L -2.783203171929927e-06 4.275203704833984 L -2.783203171929927e-06 2.296883821487427 C -2.783203171929927e-06 1.028353810310364 0.8326972126960754 3.759765604627319e-06 1.8598872423172 3.759765604627319e-06 L 10.22940731048584 3.759765604627319e-06 C 11.2565975189209 3.759765604627319e-06 12.0892972946167 1.028353810310364 12.0892972946167 2.296883821487427 L 12.0892972946167 4.275203704833984 Z" stroke="none" fill="#e28fcb"/>
    </g>
    <path id="Path_12" data-name="Path 12" d="M0,5V.733L-1.594,1.986" transform="translate(674.045 91.57)" fill="none" stroke="#e28fcb" stroke-linecap="round" stroke-linejoin="round" stroke-width="1"/>
  </g>
</svg>
