<svg width="150" height="49" viewBox="0 0 150 49" fill="none" xmlns="http://www.w3.org/2000/svg"> <path d="M46.3152 40.0793V48.5005H37.0518V40.9217H32.8404V48.5005H13.4731V40.9217H9.26159V48.5005H0V40.0793H46.3152ZM39.5778 44.2899H42.1038V40.9217H39.5778V44.2899ZM27.7893 44.2899H30.3153V40.9217H27.7893V44.2899ZM21.8942 44.2899H24.4202V40.9217H21.8942V44.2899ZM15.999 44.2899H18.5268V40.9217H15.999V44.2899ZM4.20965 44.2899H6.73652V40.9217H4.20965V44.2899Z" fill="#F0C047"></path> <path d="M0 11.4475L6.73653 4.71098V0.499512H10.1039V3.86868H36.2086V0.499512H39.5778V4.71098L46.3152 11.4475H33.6826L23.1572 6.39465L12.6317 11.4475H0Z" fill="#F0C047"></path> <path d="M0 13.1323H46.3152V38.3956H0V13.1323ZM4.20965 36.7111H6.73652V29.9736H4.20965V36.7111ZM4.20965 26.6054H6.73652V21.5525H4.20965V26.6054ZM4.20965 19.0265H6.73652V16.4997H4.20965V19.0265ZM10.1039 36.7111H12.6317V29.9736H10.1039V36.7111ZM10.1039 26.6054H12.6317V21.5525H10.1039V26.6054ZM10.1039 19.0265H12.6317V16.4997H10.1039V19.0265ZM15.999 36.7111H18.5268V29.9736H15.999V36.7111ZM15.999 26.6054H18.5268V21.5525H15.999V26.6054ZM15.999 19.0265H18.5268V16.4997H15.999V19.0265ZM21.8942 36.7111H24.4202V29.9736H21.8942V36.7111ZM21.8942 26.6054H24.4202V21.5525H21.8942V26.6054ZM21.8942 19.0265H24.4202V16.4997H21.8942V19.0265ZM27.7893 36.7111H30.3153V29.9736H27.7893V36.7111ZM27.7893 26.6054H30.3153V21.5525H27.7893V26.6054ZM27.7893 19.0265H30.3153V16.4997H27.7893V19.0265ZM33.6826 36.7111H36.2086V29.9736H33.6826V36.7111ZM33.6826 26.6054H36.2086V21.5525H33.6826V26.6054ZM33.6826 19.0265H36.2086V16.4997H33.6826V19.0265ZM39.5778 36.7111H42.1038V29.9736H39.5778V36.7111ZM39.5778 26.6054H42.1038V21.5525H39.5778V26.6054ZM39.5778 19.0265H42.1038V16.4997H39.5778V19.0265Z" fill="#F0C047"></path> <path d="M66.3513 19.3274C66.3375 18.8046 66.3833 18.2819 66.4878 17.7695C66.5609 17.4276 66.7338 17.1151 66.9844 16.8715C67.3727 16.5838 67.8239 16.3927 68.3007 16.3141V15.4607H61.3164V16.3141C61.7892 16.3953 62.2363 16.5862 62.6219 16.8715C62.8747 17.1074 63.0508 17.4137 63.1276 17.7508C63.235 18.2691 63.282 18.7982 63.2676 19.3274V29.8297C63.282 30.359 63.2323 30.8881 63.1196 31.4054C63.0417 31.7487 62.8587 32.0592 62.5961 32.2936C62.2149 32.5684 61.7781 32.7563 61.3164 32.8439V33.6964H68.3007V32.8439C67.8409 32.7633 67.4058 32.5781 67.0291 32.3025C66.7645 32.0684 66.5788 31.7582 66.4976 31.4144C66.3837 30.8942 66.3346 30.3619 66.3513 29.8297V24.8831H67.062C67.2867 24.88 67.5112 24.8946 67.7335 24.9268C67.8796 24.9494 68.0228 24.9877 68.1607 25.0409C68.2886 25.0939 68.4089 25.1638 68.5183 25.2487C68.6454 25.3472 68.7623 25.4583 68.867 25.5804C68.9767 25.7088 69.1069 25.8712 69.2594 26.0664L72.2022 29.9519C72.5303 30.3522 72.8135 30.7873 73.0467 31.2494C73.1432 31.4899 73.1934 31.7465 73.1947 32.0056C73.2008 32.1188 73.1795 32.2318 73.1326 32.3351C73.0857 32.4383 73.0147 32.5287 72.9254 32.5986C72.6852 32.7577 72.4037 32.843 72.1157 32.8439V33.6964H79.3256V32.8439C78.9051 32.7464 78.5003 32.5909 78.1226 32.3819C77.8229 32.2043 77.5482 31.9874 77.3057 31.7372C76.9478 31.3516 76.6106 30.9474 76.2954 30.5262L70.9314 23.5419L75.9476 18.4909C76.5248 17.8773 77.1671 17.3283 77.8631 16.8536C78.2717 16.5899 78.7269 16.4068 79.2043 16.3141V15.4607H71.8V16.3141C72.2061 16.3286 72.5983 16.4653 72.9254 16.7065C73.0422 16.8195 73.1331 16.9567 73.1916 17.1084C73.2501 17.26 73.2749 17.4226 73.2643 17.5849C73.2626 17.9184 73.2006 18.2489 73.0814 18.5605C72.9114 18.967 72.686 19.3481 72.4117 19.693C71.9174 20.3093 71.3852 20.8943 70.8182 21.4444C70.3103 21.9725 69.7685 22.4667 69.196 22.9239C68.8919 23.1551 68.5501 23.3318 68.1857 23.4464C67.7449 23.558 67.2909 23.6078 66.8364 23.5945H66.3513V19.3274Z" fill="currentColor"></path> <path d="M94.8385 26.1547C95.6152 27.3277 96.2074 28.2682 96.6149 28.9763H96.7353C96.6898 28.3244 96.6595 27.7082 96.6479 27.1214C96.6366 26.5352 96.631 25.9576 96.631 25.3887V19.3274C96.6461 18.7949 96.5967 18.2625 96.4838 17.7418C96.401 17.3984 96.2153 17.0885 95.9514 16.8536C95.5753 16.5791 95.1412 16.3945 94.6824 16.3141V15.4607H100.672V16.3141C100.205 16.3993 99.7618 16.5866 99.3749 16.8626C99.1131 17.0964 98.9326 17.4075 98.8595 17.7508C98.7532 18.2693 98.7065 18.7983 98.7203 19.3274V33.8185H96.771L87.4877 20.146C87.2038 19.7244 86.9418 19.2883 86.7029 18.8396H86.5817C86.6266 19.4906 86.6557 20.1086 86.6691 20.6936C86.6804 21.2812 86.686 21.8591 86.686 22.4272V29.8297C86.6706 30.362 86.7203 30.8942 86.834 31.4144C86.915 31.7581 87.1003 32.0683 87.3646 32.3025C87.7418 32.5781 88.1771 32.7633 88.6372 32.8439V33.6964H82.6445V32.8439C83.1067 32.7562 83.5441 32.5684 83.926 32.2936C84.1871 32.0583 84.3693 31.7481 84.4477 31.4054C84.5605 30.8881 84.6102 30.359 84.5957 29.8297V19.3274C84.611 18.7982 84.564 18.269 84.4557 17.7508C84.3788 17.4139 84.2031 17.1077 83.951 16.8715C83.5651 16.5861 83.1176 16.3952 82.6445 16.3141V15.4607H87.7659L94.8385 26.1547Z" fill="currentColor"></path> <path fill-rule="evenodd" clip-rule="evenodd" d="M121.208 33.6964V32.8439C120.823 32.7673 120.458 32.6098 120.137 32.3819C119.873 32.1564 119.659 31.877 119.51 31.5625C119.253 31.0166 119.03 30.4555 118.841 29.8824L113.701 15.1816H111.247L104.924 29.4294C104.631 30.1337 104.29 30.8172 103.904 31.4751C103.69 31.836 103.412 32.155 103.084 32.4168C102.779 32.6411 102.423 32.7877 102.049 32.8439V33.6965H108.651V32.8439C108.13 32.7645 107.637 32.5581 107.214 32.2429C107.07 32.0951 106.959 31.9181 106.888 31.7239C106.818 31.5296 106.79 31.3226 106.806 31.1166C106.81 30.8148 106.85 30.5145 106.926 30.2222C107.066 29.7165 107.235 29.2192 107.432 28.7329L107.762 27.8617H115.078L115.461 29.0977C115.611 29.5757 115.728 29.9743 115.81 30.2998C115.889 30.6129 115.93 30.9345 115.932 31.2575C115.944 31.5205 115.886 31.7819 115.765 32.0155C115.651 32.2121 115.481 32.3699 115.276 32.4685C114.905 32.6331 114.517 32.7589 114.12 32.844V33.6965L121.208 33.6964ZM114.625 26.433L111.768 18.2296L108.355 26.433H114.625Z" fill="currentColor"></path> <path d="M141.464 33.7847H138.868L134.913 19.1874L130.036 33.7847H127.426L122.826 19.2757C122.648 18.6659 122.421 18.0718 122.146 17.4993C122.003 17.2033 121.802 16.9393 121.554 16.7234C121.268 16.5202 120.941 16.3806 120.596 16.3141V15.4607H127.615V16.3141C127.12 16.3775 126.65 16.5663 126.249 16.8626C126.122 16.9983 126.024 17.1589 125.963 17.3342C125.901 17.5095 125.877 17.6957 125.891 17.8809C125.892 18.2118 125.927 18.5416 125.994 18.8655C126.066 19.2079 126.171 19.6056 126.311 20.0586L129.375 30.4049L134.217 15.4607H137.075L140.924 30.4209L144.563 20.4242C144.702 20.042 144.83 19.6386 144.947 19.2141C145.056 18.8313 145.114 18.4359 145.121 18.0379C145.134 17.8327 145.106 17.627 145.038 17.4328C144.97 17.2386 144.865 17.0599 144.727 16.9071C144.351 16.5836 143.888 16.3774 143.396 16.3141V15.4607H149.596V16.3141C149.343 16.3693 149.098 16.4543 148.865 16.5674C148.685 16.6677 148.524 16.7969 148.387 16.9499C148.181 17.1889 148.006 17.4522 147.864 17.7338C147.591 18.2677 147.35 18.8171 147.142 19.3791L141.464 33.7847Z" fill="currentColor"></path> </svg>